<mxfile host="app.diagrams.net" agent="Mozilla/5.0 (Windows NT 10.0; Win64; x64) AppleWebKit/537.36 (KHTML, like Gecko) Chrome/136.0.0.0 Safari/537.36 Edg/136.0.0.0" version="27.0.1">
  <diagram name="Page-1" id="L8W7u3dgbETmHMiYv3xx">
    <mxGraphModel dx="2858" dy="1232" grid="1" gridSize="10" guides="1" tooltips="1" connect="1" arrows="1" fold="1" page="1" pageScale="1" pageWidth="850" pageHeight="1100" math="0" shadow="0">
      <root>
        <mxCell id="0" />
        <mxCell id="1" parent="0" />
        <mxCell id="RuIfawrFc-DGeBDDVX_--82" value="" style="rounded=0;whiteSpace=wrap;html=1;" vertex="1" parent="1">
          <mxGeometry x="-190" y="645" width="1290" height="610" as="geometry" />
        </mxCell>
        <mxCell id="RuIfawrFc-DGeBDDVX_--17" value="" style="rounded=0;whiteSpace=wrap;html=1;" vertex="1" parent="1">
          <mxGeometry x="200" y="680" width="540" height="400" as="geometry" />
        </mxCell>
        <mxCell id="RuIfawrFc-DGeBDDVX_--8" value="" style="rounded=0;whiteSpace=wrap;html=1;" vertex="1" parent="1">
          <mxGeometry x="200" y="680" width="140" height="400" as="geometry" />
        </mxCell>
        <mxCell id="FfIFEcpsYXRxwq1rG14i-1" value="Engineers" style="shape=umlActor;verticalLabelPosition=bottom;verticalAlign=top;html=1;outlineConnect=0;" parent="1" vertex="1">
          <mxGeometry x="90" y="360" width="30" height="60" as="geometry" />
        </mxCell>
        <mxCell id="FfIFEcpsYXRxwq1rG14i-2" value="Senior management" style="shape=umlActor;verticalLabelPosition=bottom;verticalAlign=top;html=1;outlineConnect=0;" parent="1" vertex="1">
          <mxGeometry x="40" y="260" width="30" height="60" as="geometry" />
        </mxCell>
        <mxCell id="FfIFEcpsYXRxwq1rG14i-3" value="Security" style="shape=umlActor;verticalLabelPosition=bottom;verticalAlign=top;html=1;outlineConnect=0;" parent="1" vertex="1">
          <mxGeometry x="140" y="440" width="30" height="60" as="geometry" />
        </mxCell>
        <mxCell id="FfIFEcpsYXRxwq1rG14i-4" value="Staff" style="shape=umlActor;verticalLabelPosition=bottom;verticalAlign=top;html=1;outlineConnect=0;" parent="1" vertex="1">
          <mxGeometry x="90" y="120" width="30" height="60" as="geometry" />
        </mxCell>
        <mxCell id="FfIFEcpsYXRxwq1rG14i-5" value="Physical security" style="shape=umlActor;verticalLabelPosition=bottom;verticalAlign=top;html=1;outlineConnect=0;" parent="1" vertex="1">
          <mxGeometry x="90" y="570" width="30" height="60" as="geometry" />
        </mxCell>
        <mxCell id="FfIFEcpsYXRxwq1rG14i-9" value="Cybersecurity" style="shape=umlActor;verticalLabelPosition=bottom;verticalAlign=top;html=1;outlineConnect=0;" parent="1" vertex="1">
          <mxGeometry x="180" y="570" width="30" height="60" as="geometry" />
        </mxCell>
        <mxCell id="FfIFEcpsYXRxwq1rG14i-10" value="" style="endArrow=classic;html=1;rounded=0;exitX=0.5;exitY=0;exitDx=0;exitDy=0;exitPerimeter=0;" parent="1" source="FfIFEcpsYXRxwq1rG14i-5" edge="1">
          <mxGeometry width="50" height="50" relative="1" as="geometry">
            <mxPoint x="400" y="410" as="sourcePoint" />
            <mxPoint x="130" y="490" as="targetPoint" />
          </mxGeometry>
        </mxCell>
        <mxCell id="FfIFEcpsYXRxwq1rG14i-11" value="" style="endArrow=classic;html=1;rounded=0;" parent="1" edge="1">
          <mxGeometry width="50" height="50" relative="1" as="geometry">
            <mxPoint x="190" y="560" as="sourcePoint" />
            <mxPoint x="180" y="510" as="targetPoint" />
          </mxGeometry>
        </mxCell>
        <mxCell id="FfIFEcpsYXRxwq1rG14i-12" value="" style="endArrow=classic;html=1;rounded=0;exitX=0.5;exitY=0;exitDx=0;exitDy=0;exitPerimeter=0;" parent="1" edge="1">
          <mxGeometry width="50" height="50" relative="1" as="geometry">
            <mxPoint x="60" y="260" as="sourcePoint" />
            <mxPoint x="85" y="180" as="targetPoint" />
          </mxGeometry>
        </mxCell>
        <mxCell id="FfIFEcpsYXRxwq1rG14i-13" value="" style="endArrow=classic;html=1;rounded=0;exitX=0.5;exitY=0;exitDx=0;exitDy=0;exitPerimeter=0;" parent="1" edge="1">
          <mxGeometry width="50" height="50" relative="1" as="geometry">
            <mxPoint x="115" y="360" as="sourcePoint" />
            <mxPoint x="110" y="210" as="targetPoint" />
          </mxGeometry>
        </mxCell>
        <mxCell id="FfIFEcpsYXRxwq1rG14i-14" value="" style="endArrow=classic;html=1;rounded=0;exitX=0.5;exitY=0;exitDx=0;exitDy=0;exitPerimeter=0;" parent="1" edge="1">
          <mxGeometry width="50" height="50" relative="1" as="geometry">
            <mxPoint x="157.5" y="430" as="sourcePoint" />
            <mxPoint x="130" y="200" as="targetPoint" />
          </mxGeometry>
        </mxCell>
        <mxCell id="FfIFEcpsYXRxwq1rG14i-15" value="DeathOS" style="text;html=1;align=center;verticalAlign=middle;resizable=0;points=[];autosize=1;strokeColor=none;fillColor=none;" parent="1" vertex="1">
          <mxGeometry x="400" y="80" width="70" height="30" as="geometry" />
        </mxCell>
        <mxCell id="FfIFEcpsYXRxwq1rG14i-16" value="Message other staff" style="ellipse;whiteSpace=wrap;html=1;" parent="1" vertex="1">
          <mxGeometry x="260" y="90" width="120" height="80" as="geometry" />
        </mxCell>
        <mxCell id="FfIFEcpsYXRxwq1rG14i-17" value="Fire superlaser" style="ellipse;whiteSpace=wrap;html=1;" parent="1" vertex="1">
          <mxGeometry x="290" y="310" width="120" height="80" as="geometry" />
        </mxCell>
        <mxCell id="FfIFEcpsYXRxwq1rG14i-18" value="View Death Star status" style="ellipse;whiteSpace=wrap;html=1;" parent="1" vertex="1">
          <mxGeometry x="260" y="200" width="120" height="80" as="geometry" />
        </mxCell>
        <mxCell id="FfIFEcpsYXRxwq1rG14i-19" value="Handle emergency breach protocols" style="ellipse;whiteSpace=wrap;html=1;" parent="1" vertex="1">
          <mxGeometry x="290" y="530" width="120" height="80" as="geometry" />
        </mxCell>
        <mxCell id="FfIFEcpsYXRxwq1rG14i-20" value="Maintain liveable environmental conditions" style="ellipse;whiteSpace=wrap;html=1;" parent="1" vertex="1">
          <mxGeometry x="280" y="420" width="120" height="80" as="geometry" />
        </mxCell>
        <mxCell id="FfIFEcpsYXRxwq1rG14i-22" value="" style="endArrow=none;html=1;rounded=0;entryX=-0.025;entryY=0.596;entryDx=0;entryDy=0;entryPerimeter=0;" parent="1" source="FfIFEcpsYXRxwq1rG14i-4" target="FfIFEcpsYXRxwq1rG14i-16" edge="1">
          <mxGeometry width="50" height="50" relative="1" as="geometry">
            <mxPoint x="400" y="410" as="sourcePoint" />
            <mxPoint x="450" y="360" as="targetPoint" />
          </mxGeometry>
        </mxCell>
        <mxCell id="FfIFEcpsYXRxwq1rG14i-23" value="" style="endArrow=none;html=1;rounded=0;" parent="1" target="FfIFEcpsYXRxwq1rG14i-18" edge="1">
          <mxGeometry width="50" height="50" relative="1" as="geometry">
            <mxPoint x="130" y="159" as="sourcePoint" />
            <mxPoint x="267" y="148" as="targetPoint" />
          </mxGeometry>
        </mxCell>
        <mxCell id="FfIFEcpsYXRxwq1rG14i-24" value="" style="endArrow=none;html=1;rounded=0;entryX=-0.019;entryY=0.396;entryDx=0;entryDy=0;entryPerimeter=0;" parent="1" target="FfIFEcpsYXRxwq1rG14i-17" edge="1">
          <mxGeometry width="50" height="50" relative="1" as="geometry">
            <mxPoint x="120" y="391" as="sourcePoint" />
            <mxPoint x="259" y="450" as="targetPoint" />
          </mxGeometry>
        </mxCell>
        <mxCell id="FfIFEcpsYXRxwq1rG14i-25" value="" style="endArrow=none;html=1;rounded=0;" parent="1" target="FfIFEcpsYXRxwq1rG14i-17" edge="1">
          <mxGeometry width="50" height="50" relative="1" as="geometry">
            <mxPoint x="70" y="290" as="sourcePoint" />
            <mxPoint x="178" y="301" as="targetPoint" />
          </mxGeometry>
        </mxCell>
        <mxCell id="FfIFEcpsYXRxwq1rG14i-26" value="" style="endArrow=none;html=1;rounded=0;entryX=0;entryY=0;entryDx=0;entryDy=0;" parent="1" target="FfIFEcpsYXRxwq1rG14i-19" edge="1">
          <mxGeometry width="50" height="50" relative="1" as="geometry">
            <mxPoint x="170" y="479.5" as="sourcePoint" />
            <mxPoint x="328" y="460.5" as="targetPoint" />
          </mxGeometry>
        </mxCell>
        <mxCell id="FfIFEcpsYXRxwq1rG14i-27" value="" style="endArrow=none;html=1;rounded=0;entryX=0;entryY=0.375;entryDx=0;entryDy=0;entryPerimeter=0;" parent="1" target="FfIFEcpsYXRxwq1rG14i-20" edge="1">
          <mxGeometry width="50" height="50" relative="1" as="geometry">
            <mxPoint x="130" y="401" as="sourcePoint" />
            <mxPoint x="288" y="382" as="targetPoint" />
          </mxGeometry>
        </mxCell>
        <mxCell id="FfIFEcpsYXRxwq1rG14i-30" value="Remotely access all doors on Death Star" style="ellipse;whiteSpace=wrap;html=1;" parent="1" vertex="1">
          <mxGeometry x="480" y="530" width="120" height="80" as="geometry" />
        </mxCell>
        <mxCell id="FfIFEcpsYXRxwq1rG14i-31" value="Utilize network to quickly transmit data" style="ellipse;whiteSpace=wrap;html=1;" parent="1" vertex="1">
          <mxGeometry x="500" y="305" width="120" height="80" as="geometry" />
        </mxCell>
        <mxCell id="FfIFEcpsYXRxwq1rG14i-32" value="" style="endArrow=classic;html=1;rounded=0;exitX=1;exitY=0.5;exitDx=0;exitDy=0;entryX=0;entryY=0;entryDx=0;entryDy=0;dashed=1;" parent="1" source="FfIFEcpsYXRxwq1rG14i-16" target="FfIFEcpsYXRxwq1rG14i-31" edge="1">
          <mxGeometry width="50" height="50" relative="1" as="geometry">
            <mxPoint x="487.5" y="320" as="sourcePoint" />
            <mxPoint x="460" y="90" as="targetPoint" />
          </mxGeometry>
        </mxCell>
        <mxCell id="FfIFEcpsYXRxwq1rG14i-33" value="" style="endArrow=classic;html=1;rounded=0;exitX=0.992;exitY=0.679;exitDx=0;exitDy=0;entryX=0.053;entryY=0.229;entryDx=0;entryDy=0;exitPerimeter=0;entryPerimeter=0;dashed=1;" parent="1" source="FfIFEcpsYXRxwq1rG14i-18" target="FfIFEcpsYXRxwq1rG14i-31" edge="1">
          <mxGeometry width="50" height="50" relative="1" as="geometry">
            <mxPoint x="390" y="140" as="sourcePoint" />
            <mxPoint x="488" y="332" as="targetPoint" />
          </mxGeometry>
        </mxCell>
        <mxCell id="FfIFEcpsYXRxwq1rG14i-34" value="" style="endArrow=classic;html=1;rounded=0;exitX=0.992;exitY=0.679;exitDx=0;exitDy=0;entryX=0;entryY=0.5;entryDx=0;entryDy=0;exitPerimeter=0;dashed=1;" parent="1" target="FfIFEcpsYXRxwq1rG14i-31" edge="1">
          <mxGeometry width="50" height="50" relative="1" as="geometry">
            <mxPoint x="410" y="353" as="sourcePoint" />
            <mxPoint x="497" y="427" as="targetPoint" />
          </mxGeometry>
        </mxCell>
        <mxCell id="FfIFEcpsYXRxwq1rG14i-35" value="" style="endArrow=classic;html=1;rounded=0;exitX=0.992;exitY=0.679;exitDx=0;exitDy=0;exitPerimeter=0;dashed=1;" parent="1" target="FfIFEcpsYXRxwq1rG14i-31" edge="1">
          <mxGeometry width="50" height="50" relative="1" as="geometry">
            <mxPoint x="390" y="440" as="sourcePoint" />
            <mxPoint x="440" y="437" as="targetPoint" />
          </mxGeometry>
        </mxCell>
        <mxCell id="FfIFEcpsYXRxwq1rG14i-36" value="" style="endArrow=classic;html=1;rounded=0;exitX=0.992;exitY=0.679;exitDx=0;exitDy=0;exitPerimeter=0;entryX=0.297;entryY=1.004;entryDx=0;entryDy=0;entryPerimeter=0;dashed=1;" parent="1" target="FfIFEcpsYXRxwq1rG14i-31" edge="1">
          <mxGeometry width="50" height="50" relative="1" as="geometry">
            <mxPoint x="400" y="541" as="sourcePoint" />
            <mxPoint x="488" y="480" as="targetPoint" />
          </mxGeometry>
        </mxCell>
        <mxCell id="FfIFEcpsYXRxwq1rG14i-38" value="&amp;lt;&amp;lt;include&amp;gt;&amp;gt;" style="text;html=1;align=center;verticalAlign=middle;resizable=0;points=[];autosize=1;strokeColor=none;fillColor=none;" parent="1" vertex="1">
          <mxGeometry x="425" y="455" width="90" height="30" as="geometry" />
        </mxCell>
        <mxCell id="FfIFEcpsYXRxwq1rG14i-39" value="&amp;lt;&amp;lt;include&amp;gt;&amp;gt;" style="text;html=1;align=center;verticalAlign=middle;resizable=0;points=[];autosize=1;strokeColor=none;fillColor=none;" parent="1" vertex="1">
          <mxGeometry x="360" y="390" width="90" height="30" as="geometry" />
        </mxCell>
        <mxCell id="FfIFEcpsYXRxwq1rG14i-40" value="&amp;lt;&amp;lt;include&amp;gt;&amp;gt;" style="text;html=1;align=center;verticalAlign=middle;resizable=0;points=[];autosize=1;strokeColor=none;fillColor=none;" parent="1" vertex="1">
          <mxGeometry x="400" y="355" width="90" height="30" as="geometry" />
        </mxCell>
        <mxCell id="FfIFEcpsYXRxwq1rG14i-43" value="&amp;lt;&amp;lt;include&amp;gt;&amp;gt;" style="text;html=1;align=center;verticalAlign=middle;resizable=0;points=[];autosize=1;strokeColor=none;fillColor=none;" parent="1" vertex="1">
          <mxGeometry x="360" y="275" width="90" height="30" as="geometry" />
        </mxCell>
        <mxCell id="FfIFEcpsYXRxwq1rG14i-44" value="&amp;lt;&amp;lt;include&amp;gt;&amp;gt;" style="text;html=1;align=center;verticalAlign=middle;resizable=0;points=[];autosize=1;strokeColor=none;fillColor=none;" parent="1" vertex="1">
          <mxGeometry x="400" y="180" width="90" height="30" as="geometry" />
        </mxCell>
        <mxCell id="FfIFEcpsYXRxwq1rG14i-45" value="" style="endArrow=classic;html=1;rounded=0;exitX=0.992;exitY=0.679;exitDx=0;exitDy=0;exitPerimeter=0;entryX=0;entryY=0.375;entryDx=0;entryDy=0;entryPerimeter=0;dashed=1;" parent="1" target="FfIFEcpsYXRxwq1rG14i-30" edge="1">
          <mxGeometry width="50" height="50" relative="1" as="geometry">
            <mxPoint x="410" y="551" as="sourcePoint" />
            <mxPoint x="506" y="400" as="targetPoint" />
          </mxGeometry>
        </mxCell>
        <mxCell id="FfIFEcpsYXRxwq1rG14i-47" value="&amp;lt;&amp;lt;include&amp;gt;&amp;gt;" style="text;html=1;align=center;verticalAlign=middle;resizable=0;points=[];autosize=1;strokeColor=none;fillColor=none;" parent="1" vertex="1">
          <mxGeometry x="400" y="520" width="90" height="30" as="geometry" />
        </mxCell>
        <mxCell id="FfIFEcpsYXRxwq1rG14i-48" value="" style="rounded=0;whiteSpace=wrap;html=1;opacity=50;" parent="1" vertex="1">
          <mxGeometry x="240" y="70" width="410" height="580" as="geometry" />
        </mxCell>
        <mxCell id="RuIfawrFc-DGeBDDVX_--2" value="Logo" style="rounded=0;whiteSpace=wrap;html=1;" vertex="1" parent="1">
          <mxGeometry x="220" y="710" width="100" height="60" as="geometry" />
        </mxCell>
        <mxCell id="RuIfawrFc-DGeBDDVX_--3" value="link to dashboard" style="rounded=0;whiteSpace=wrap;html=1;" vertex="1" parent="1">
          <mxGeometry x="220" y="780" width="100" height="40" as="geometry" />
        </mxCell>
        <mxCell id="RuIfawrFc-DGeBDDVX_--4" value="link to archive" style="rounded=0;whiteSpace=wrap;html=1;" vertex="1" parent="1">
          <mxGeometry x="220" y="830" width="100" height="40" as="geometry" />
        </mxCell>
        <mxCell id="RuIfawrFc-DGeBDDVX_--5" value="link to new tax form" style="rounded=0;whiteSpace=wrap;html=1;" vertex="1" parent="1">
          <mxGeometry x="220" y="880" width="100" height="40" as="geometry" />
        </mxCell>
        <mxCell id="RuIfawrFc-DGeBDDVX_--6" value="link to FAQ" style="rounded=0;whiteSpace=wrap;html=1;" vertex="1" parent="1">
          <mxGeometry x="220" y="930" width="100" height="40" as="geometry" />
        </mxCell>
        <mxCell id="RuIfawrFc-DGeBDDVX_--7" value="link to contact us" style="rounded=0;whiteSpace=wrap;html=1;" vertex="1" parent="1">
          <mxGeometry x="220" y="980" width="100" height="40" as="geometry" />
        </mxCell>
        <mxCell id="RuIfawrFc-DGeBDDVX_--9" value="logout button" style="rounded=0;whiteSpace=wrap;html=1;" vertex="1" parent="1">
          <mxGeometry x="220" y="1030" width="100" height="40" as="geometry" />
        </mxCell>
        <mxCell id="RuIfawrFc-DGeBDDVX_--10" value="Title" style="rounded=0;whiteSpace=wrap;html=1;" vertex="1" parent="1">
          <mxGeometry x="360" y="690" width="350" height="60" as="geometry" />
        </mxCell>
        <mxCell id="RuIfawrFc-DGeBDDVX_--11" value="Input fields&amp;nbsp;" style="rounded=0;whiteSpace=wrap;html=1;" vertex="1" parent="1">
          <mxGeometry x="360" y="770" width="350" height="160" as="geometry" />
        </mxCell>
        <mxCell id="RuIfawrFc-DGeBDDVX_--12" value="Signature" style="rounded=0;whiteSpace=wrap;html=1;" vertex="1" parent="1">
          <mxGeometry x="495" y="960" width="90" height="60" as="geometry" />
        </mxCell>
        <mxCell id="RuIfawrFc-DGeBDDVX_--13" value="Save" style="rounded=0;whiteSpace=wrap;html=1;" vertex="1" parent="1">
          <mxGeometry x="360" y="980" width="90" height="60" as="geometry" />
        </mxCell>
        <mxCell id="RuIfawrFc-DGeBDDVX_--14" value="Submit" style="rounded=0;whiteSpace=wrap;html=1;" vertex="1" parent="1">
          <mxGeometry x="620" y="980" width="90" height="60" as="geometry" />
        </mxCell>
        <mxCell id="RuIfawrFc-DGeBDDVX_--15" value="Verification" style="rounded=0;whiteSpace=wrap;html=1;" vertex="1" parent="1">
          <mxGeometry x="620" y="1050" width="90" height="20" as="geometry" />
        </mxCell>
        <mxCell id="RuIfawrFc-DGeBDDVX_--18" value="" style="rounded=0;whiteSpace=wrap;html=1;" vertex="1" parent="1">
          <mxGeometry x="1320" y="680" width="540" height="400" as="geometry" />
        </mxCell>
        <mxCell id="RuIfawrFc-DGeBDDVX_--19" value="" style="rounded=0;whiteSpace=wrap;html=1;" vertex="1" parent="1">
          <mxGeometry x="1320" y="680" width="140" height="400" as="geometry" />
        </mxCell>
        <mxCell id="RuIfawrFc-DGeBDDVX_--20" value="Logo" style="rounded=0;whiteSpace=wrap;html=1;" vertex="1" parent="1">
          <mxGeometry x="1340" y="710" width="100" height="60" as="geometry" />
        </mxCell>
        <mxCell id="RuIfawrFc-DGeBDDVX_--21" value="link to dashboard" style="rounded=0;whiteSpace=wrap;html=1;" vertex="1" parent="1">
          <mxGeometry x="1340" y="780" width="100" height="40" as="geometry" />
        </mxCell>
        <mxCell id="RuIfawrFc-DGeBDDVX_--22" value="link to archive" style="rounded=0;whiteSpace=wrap;html=1;" vertex="1" parent="1">
          <mxGeometry x="1340" y="830" width="100" height="40" as="geometry" />
        </mxCell>
        <mxCell id="RuIfawrFc-DGeBDDVX_--23" value="link to new tax form" style="rounded=0;whiteSpace=wrap;html=1;" vertex="1" parent="1">
          <mxGeometry x="1340" y="880" width="100" height="40" as="geometry" />
        </mxCell>
        <mxCell id="RuIfawrFc-DGeBDDVX_--24" value="link to FAQ" style="rounded=0;whiteSpace=wrap;html=1;" vertex="1" parent="1">
          <mxGeometry x="1340" y="930" width="100" height="40" as="geometry" />
        </mxCell>
        <mxCell id="RuIfawrFc-DGeBDDVX_--25" value="link to contact us" style="rounded=0;whiteSpace=wrap;html=1;" vertex="1" parent="1">
          <mxGeometry x="1340" y="980" width="100" height="40" as="geometry" />
        </mxCell>
        <mxCell id="RuIfawrFc-DGeBDDVX_--26" value="logout button" style="rounded=0;whiteSpace=wrap;html=1;" vertex="1" parent="1">
          <mxGeometry x="1340" y="1030" width="100" height="40" as="geometry" />
        </mxCell>
        <mxCell id="RuIfawrFc-DGeBDDVX_--27" value="Title" style="rounded=0;whiteSpace=wrap;html=1;" vertex="1" parent="1">
          <mxGeometry x="1480" y="690" width="350" height="60" as="geometry" />
        </mxCell>
        <mxCell id="RuIfawrFc-DGeBDDVX_--28" value="Input fields&amp;nbsp;" style="rounded=0;whiteSpace=wrap;html=1;" vertex="1" parent="1">
          <mxGeometry x="1480" y="770" width="350" height="160" as="geometry" />
        </mxCell>
        <mxCell id="RuIfawrFc-DGeBDDVX_--29" value="Balance sheet" style="rounded=0;whiteSpace=wrap;html=1;" vertex="1" parent="1">
          <mxGeometry x="1615" y="960" width="90" height="60" as="geometry" />
        </mxCell>
        <mxCell id="RuIfawrFc-DGeBDDVX_--30" value="Save" style="rounded=0;whiteSpace=wrap;html=1;" vertex="1" parent="1">
          <mxGeometry x="1480" y="980" width="90" height="60" as="geometry" />
        </mxCell>
        <mxCell id="RuIfawrFc-DGeBDDVX_--31" value="Submit" style="rounded=0;whiteSpace=wrap;html=1;" vertex="1" parent="1">
          <mxGeometry x="1740" y="980" width="90" height="60" as="geometry" />
        </mxCell>
        <mxCell id="RuIfawrFc-DGeBDDVX_--32" value="Verification" style="rounded=0;whiteSpace=wrap;html=1;" vertex="1" parent="1">
          <mxGeometry x="1740" y="1050" width="90" height="20" as="geometry" />
        </mxCell>
        <mxCell id="RuIfawrFc-DGeBDDVX_--33" value="Sidebar provides links for&amp;nbsp;&lt;div&gt;easy navigation between pages&lt;div&gt;&lt;br&gt;&lt;/div&gt;&lt;/div&gt;" style="text;html=1;align=center;verticalAlign=middle;resizable=0;points=[];autosize=1;strokeColor=none;fillColor=none;" vertex="1" parent="1">
          <mxGeometry x="-90" y="780" width="190" height="60" as="geometry" />
        </mxCell>
        <mxCell id="RuIfawrFc-DGeBDDVX_--35" value="" style="endArrow=classic;html=1;rounded=0;entryX=0;entryY=0.5;entryDx=0;entryDy=0;" edge="1" parent="1" target="RuIfawrFc-DGeBDDVX_--3">
          <mxGeometry width="50" height="50" relative="1" as="geometry">
            <mxPoint x="100" y="810" as="sourcePoint" />
            <mxPoint x="230" y="750" as="targetPoint" />
          </mxGeometry>
        </mxCell>
        <mxCell id="RuIfawrFc-DGeBDDVX_--36" value="" style="endArrow=classic;html=1;rounded=0;entryX=0;entryY=0.5;entryDx=0;entryDy=0;" edge="1" parent="1" target="RuIfawrFc-DGeBDDVX_--4">
          <mxGeometry width="50" height="50" relative="1" as="geometry">
            <mxPoint x="100" y="810" as="sourcePoint" />
            <mxPoint x="240" y="760" as="targetPoint" />
          </mxGeometry>
        </mxCell>
        <mxCell id="RuIfawrFc-DGeBDDVX_--37" value="" style="endArrow=classic;html=1;rounded=0;entryX=0;entryY=0.5;entryDx=0;entryDy=0;" edge="1" parent="1" target="RuIfawrFc-DGeBDDVX_--5">
          <mxGeometry width="50" height="50" relative="1" as="geometry">
            <mxPoint x="100" y="810" as="sourcePoint" />
            <mxPoint x="250" y="770" as="targetPoint" />
          </mxGeometry>
        </mxCell>
        <mxCell id="RuIfawrFc-DGeBDDVX_--38" value="" style="endArrow=classic;html=1;rounded=0;entryX=0;entryY=0.5;entryDx=0;entryDy=0;" edge="1" parent="1" target="RuIfawrFc-DGeBDDVX_--6">
          <mxGeometry width="50" height="50" relative="1" as="geometry">
            <mxPoint x="100" y="810" as="sourcePoint" />
            <mxPoint x="260" y="780" as="targetPoint" />
          </mxGeometry>
        </mxCell>
        <mxCell id="RuIfawrFc-DGeBDDVX_--39" value="" style="endArrow=classic;html=1;rounded=0;entryX=0;entryY=0.5;entryDx=0;entryDy=0;" edge="1" parent="1" target="RuIfawrFc-DGeBDDVX_--7">
          <mxGeometry width="50" height="50" relative="1" as="geometry">
            <mxPoint x="100" y="810" as="sourcePoint" />
            <mxPoint x="270" y="790" as="targetPoint" />
          </mxGeometry>
        </mxCell>
        <mxCell id="RuIfawrFc-DGeBDDVX_--40" value="&lt;div&gt;&lt;div&gt;Save button to save&amp;nbsp;&lt;/div&gt;&lt;div&gt;all inputted fields&lt;/div&gt;&lt;/div&gt;" style="text;html=1;align=center;verticalAlign=middle;resizable=0;points=[];autosize=1;strokeColor=none;fillColor=none;" vertex="1" parent="1">
          <mxGeometry x="300" y="1145" width="130" height="40" as="geometry" />
        </mxCell>
        <mxCell id="RuIfawrFc-DGeBDDVX_--41" value="&lt;div&gt;&lt;div&gt;Submit button finalizes&amp;nbsp;&lt;/div&gt;&lt;/div&gt;&lt;div&gt;tax form changes. Edits can&amp;nbsp;&lt;/div&gt;&lt;div&gt;no longer be made by user&lt;/div&gt;" style="text;html=1;align=center;verticalAlign=middle;resizable=0;points=[];autosize=1;strokeColor=none;fillColor=none;" vertex="1" parent="1">
          <mxGeometry x="770" y="1010" width="170" height="60" as="geometry" />
        </mxCell>
        <mxCell id="RuIfawrFc-DGeBDDVX_--42" value="Sidebar provides links for&amp;nbsp;&lt;div&gt;easy navigation between pages&lt;div&gt;&lt;br&gt;&lt;/div&gt;&lt;/div&gt;" style="text;html=1;align=center;verticalAlign=middle;resizable=0;points=[];autosize=1;strokeColor=none;fillColor=none;" vertex="1" parent="1">
          <mxGeometry x="1030" y="780" width="190" height="60" as="geometry" />
        </mxCell>
        <mxCell id="RuIfawrFc-DGeBDDVX_--44" value="" style="endArrow=classic;html=1;rounded=0;entryX=0;entryY=0.5;entryDx=0;entryDy=0;" edge="1" parent="1">
          <mxGeometry width="50" height="50" relative="1" as="geometry">
            <mxPoint x="1220" y="810" as="sourcePoint" />
            <mxPoint x="1340" y="800" as="targetPoint" />
          </mxGeometry>
        </mxCell>
        <mxCell id="RuIfawrFc-DGeBDDVX_--45" value="" style="endArrow=classic;html=1;rounded=0;entryX=0;entryY=0.5;entryDx=0;entryDy=0;" edge="1" parent="1">
          <mxGeometry width="50" height="50" relative="1" as="geometry">
            <mxPoint x="1220" y="810" as="sourcePoint" />
            <mxPoint x="1340" y="850" as="targetPoint" />
          </mxGeometry>
        </mxCell>
        <mxCell id="RuIfawrFc-DGeBDDVX_--46" value="" style="endArrow=classic;html=1;rounded=0;entryX=0;entryY=0.5;entryDx=0;entryDy=0;" edge="1" parent="1">
          <mxGeometry width="50" height="50" relative="1" as="geometry">
            <mxPoint x="1220" y="810" as="sourcePoint" />
            <mxPoint x="1340" y="900" as="targetPoint" />
          </mxGeometry>
        </mxCell>
        <mxCell id="RuIfawrFc-DGeBDDVX_--47" value="" style="endArrow=classic;html=1;rounded=0;entryX=0;entryY=0.5;entryDx=0;entryDy=0;" edge="1" parent="1">
          <mxGeometry width="50" height="50" relative="1" as="geometry">
            <mxPoint x="1220" y="810" as="sourcePoint" />
            <mxPoint x="1340" y="950" as="targetPoint" />
          </mxGeometry>
        </mxCell>
        <mxCell id="RuIfawrFc-DGeBDDVX_--48" value="" style="endArrow=classic;html=1;rounded=0;entryX=0;entryY=0.5;entryDx=0;entryDy=0;" edge="1" parent="1">
          <mxGeometry width="50" height="50" relative="1" as="geometry">
            <mxPoint x="1220" y="810" as="sourcePoint" />
            <mxPoint x="1340" y="1000" as="targetPoint" />
          </mxGeometry>
        </mxCell>
        <mxCell id="RuIfawrFc-DGeBDDVX_--52" value="User is required to check a&amp;nbsp;&lt;div&gt;checkbox, verifying that they have&amp;nbsp;&lt;/div&gt;&lt;div&gt;double checked all inputted fields&lt;/div&gt;&lt;div&gt;and are ready to submit&lt;/div&gt;" style="text;html=1;align=center;verticalAlign=middle;resizable=0;points=[];autosize=1;strokeColor=none;fillColor=none;" vertex="1" parent="1">
          <mxGeometry x="770" y="1090" width="210" height="70" as="geometry" />
        </mxCell>
        <mxCell id="RuIfawrFc-DGeBDDVX_--53" value="&lt;div&gt;&lt;div&gt;Signature field that&amp;nbsp;&lt;/div&gt;&lt;div&gt;can receive pdfs&lt;/div&gt;&lt;div&gt;used to authenticate&amp;nbsp;&lt;/div&gt;&lt;/div&gt;&lt;div&gt;tax form for auditing and legal&lt;/div&gt;&lt;div&gt;purposes&lt;/div&gt;" style="text;html=1;align=center;verticalAlign=middle;resizable=0;points=[];autosize=1;strokeColor=none;fillColor=none;" vertex="1" parent="1">
          <mxGeometry x="450" y="1110" width="180" height="90" as="geometry" />
        </mxCell>
        <mxCell id="RuIfawrFc-DGeBDDVX_--54" value="A variety of text fields required for&amp;nbsp;&lt;div&gt;a tax form submission (for an individual)&lt;/div&gt;" style="text;html=1;align=center;verticalAlign=middle;resizable=0;points=[];autosize=1;strokeColor=none;fillColor=none;" vertex="1" parent="1">
          <mxGeometry x="740" y="885" width="240" height="40" as="geometry" />
        </mxCell>
        <mxCell id="RuIfawrFc-DGeBDDVX_--55" value="The header of the page (&quot;Individual Tax Form&quot;)" style="text;html=1;align=center;verticalAlign=middle;resizable=0;points=[];autosize=1;strokeColor=none;fillColor=none;" vertex="1" parent="1">
          <mxGeometry x="740" y="700" width="270" height="30" as="geometry" />
        </mxCell>
        <mxCell id="RuIfawrFc-DGeBDDVX_--56" value="" style="endArrow=classic;html=1;rounded=0;exitX=0.007;exitY=0.485;exitDx=0;exitDy=0;exitPerimeter=0;entryX=1;entryY=0.5;entryDx=0;entryDy=0;" edge="1" parent="1" source="RuIfawrFc-DGeBDDVX_--55" target="RuIfawrFc-DGeBDDVX_--10">
          <mxGeometry width="50" height="50" relative="1" as="geometry">
            <mxPoint x="450" y="900" as="sourcePoint" />
            <mxPoint x="500" y="850" as="targetPoint" />
          </mxGeometry>
        </mxCell>
        <mxCell id="RuIfawrFc-DGeBDDVX_--58" value="" style="endArrow=classic;html=1;rounded=0;exitX=0.008;exitY=0.508;exitDx=0;exitDy=0;exitPerimeter=0;" edge="1" parent="1" source="RuIfawrFc-DGeBDDVX_--54" target="RuIfawrFc-DGeBDDVX_--11">
          <mxGeometry width="50" height="50" relative="1" as="geometry">
            <mxPoint x="797" y="824" as="sourcePoint" />
            <mxPoint x="720" y="820" as="targetPoint" />
          </mxGeometry>
        </mxCell>
        <mxCell id="RuIfawrFc-DGeBDDVX_--59" value="" style="endArrow=classic;html=1;rounded=0;entryX=1;entryY=0.75;entryDx=0;entryDy=0;" edge="1" parent="1" source="RuIfawrFc-DGeBDDVX_--52" target="RuIfawrFc-DGeBDDVX_--15">
          <mxGeometry width="50" height="50" relative="1" as="geometry">
            <mxPoint x="807" y="834" as="sourcePoint" />
            <mxPoint x="730" y="830" as="targetPoint" />
          </mxGeometry>
        </mxCell>
        <mxCell id="RuIfawrFc-DGeBDDVX_--60" value="" style="endArrow=classic;html=1;rounded=0;entryX=1;entryY=0.75;entryDx=0;entryDy=0;exitX=0.019;exitY=0.538;exitDx=0;exitDy=0;exitPerimeter=0;" edge="1" parent="1" source="RuIfawrFc-DGeBDDVX_--41" target="RuIfawrFc-DGeBDDVX_--14">
          <mxGeometry width="50" height="50" relative="1" as="geometry">
            <mxPoint x="789" y="1100" as="sourcePoint" />
            <mxPoint x="720" y="1075" as="targetPoint" />
          </mxGeometry>
        </mxCell>
        <mxCell id="RuIfawrFc-DGeBDDVX_--61" value="" style="endArrow=classic;html=1;rounded=0;entryX=0.5;entryY=1;entryDx=0;entryDy=0;exitX=0.543;exitY=-0.046;exitDx=0;exitDy=0;exitPerimeter=0;" edge="1" parent="1" source="RuIfawrFc-DGeBDDVX_--53" target="RuIfawrFc-DGeBDDVX_--12">
          <mxGeometry width="50" height="50" relative="1" as="geometry">
            <mxPoint x="799" y="1110" as="sourcePoint" />
            <mxPoint x="730" y="1085" as="targetPoint" />
          </mxGeometry>
        </mxCell>
        <mxCell id="RuIfawrFc-DGeBDDVX_--62" value="" style="endArrow=classic;html=1;rounded=0;entryX=0.5;entryY=1;entryDx=0;entryDy=0;" edge="1" parent="1" target="RuIfawrFc-DGeBDDVX_--13">
          <mxGeometry width="50" height="50" relative="1" as="geometry">
            <mxPoint x="370" y="1140" as="sourcePoint" />
            <mxPoint x="550" y="1030" as="targetPoint" />
          </mxGeometry>
        </mxCell>
        <mxCell id="RuIfawrFc-DGeBDDVX_--64" value="Log out button for users&amp;nbsp;&lt;div&gt;to easily and quickly&lt;/div&gt;&lt;div&gt;terminate session&lt;/div&gt;" style="text;html=1;align=center;verticalAlign=middle;resizable=0;points=[];autosize=1;strokeColor=none;fillColor=none;" vertex="1" parent="1">
          <mxGeometry x="-70" y="1050" width="150" height="60" as="geometry" />
        </mxCell>
        <mxCell id="RuIfawrFc-DGeBDDVX_--65" value="" style="endArrow=classic;html=1;rounded=0;entryX=0;entryY=0.5;entryDx=0;entryDy=0;" edge="1" parent="1" target="RuIfawrFc-DGeBDDVX_--9">
          <mxGeometry width="50" height="50" relative="1" as="geometry">
            <mxPoint x="60" y="1080" as="sourcePoint" />
            <mxPoint x="180" y="1010" as="targetPoint" />
          </mxGeometry>
        </mxCell>
        <mxCell id="RuIfawrFc-DGeBDDVX_--66" value="Log out button for users&amp;nbsp;&lt;div&gt;to easily and quickly&lt;/div&gt;&lt;div&gt;terminate session&lt;/div&gt;" style="text;html=1;align=center;verticalAlign=middle;resizable=0;points=[];autosize=1;strokeColor=none;fillColor=none;" vertex="1" parent="1">
          <mxGeometry x="1120" y="1050" width="150" height="60" as="geometry" />
        </mxCell>
        <mxCell id="RuIfawrFc-DGeBDDVX_--67" value="" style="endArrow=classic;html=1;rounded=0;entryX=0;entryY=0.5;entryDx=0;entryDy=0;" edge="1" parent="1">
          <mxGeometry width="50" height="50" relative="1" as="geometry">
            <mxPoint x="1260" y="1070" as="sourcePoint" />
            <mxPoint x="1340" y="1050" as="targetPoint" />
          </mxGeometry>
        </mxCell>
        <mxCell id="RuIfawrFc-DGeBDDVX_--68" value="&lt;div&gt;&lt;div&gt;Submit button finalizes&amp;nbsp;&lt;/div&gt;&lt;/div&gt;&lt;div&gt;tax form changes. Edits can&amp;nbsp;&lt;/div&gt;&lt;div&gt;no longer be made by user&lt;/div&gt;" style="text;html=1;align=center;verticalAlign=middle;resizable=0;points=[];autosize=1;strokeColor=none;fillColor=none;" vertex="1" parent="1">
          <mxGeometry x="1890" y="995" width="170" height="60" as="geometry" />
        </mxCell>
        <mxCell id="RuIfawrFc-DGeBDDVX_--69" value="User is required to check a&amp;nbsp;&lt;div&gt;checkbox, verifying that they have&amp;nbsp;&lt;/div&gt;&lt;div&gt;double checked all inputted fields&lt;/div&gt;&lt;div&gt;and are ready to submit&lt;/div&gt;" style="text;html=1;align=center;verticalAlign=middle;resizable=0;points=[];autosize=1;strokeColor=none;fillColor=none;" vertex="1" parent="1">
          <mxGeometry x="1890" y="1075" width="210" height="70" as="geometry" />
        </mxCell>
        <mxCell id="RuIfawrFc-DGeBDDVX_--70" value="" style="endArrow=classic;html=1;rounded=0;entryX=1;entryY=0.75;entryDx=0;entryDy=0;" edge="1" parent="1" source="RuIfawrFc-DGeBDDVX_--69">
          <mxGeometry width="50" height="50" relative="1" as="geometry">
            <mxPoint x="1927" y="819" as="sourcePoint" />
            <mxPoint x="1830" y="1050" as="targetPoint" />
          </mxGeometry>
        </mxCell>
        <mxCell id="RuIfawrFc-DGeBDDVX_--71" value="" style="endArrow=classic;html=1;rounded=0;entryX=1;entryY=0.75;entryDx=0;entryDy=0;exitX=0.019;exitY=0.538;exitDx=0;exitDy=0;exitPerimeter=0;" edge="1" parent="1" source="RuIfawrFc-DGeBDDVX_--68">
          <mxGeometry width="50" height="50" relative="1" as="geometry">
            <mxPoint x="1909" y="1085" as="sourcePoint" />
            <mxPoint x="1830" y="1010" as="targetPoint" />
          </mxGeometry>
        </mxCell>
        <mxCell id="RuIfawrFc-DGeBDDVX_--72" value="&lt;div&gt;&lt;div&gt;Save button to save&amp;nbsp;&lt;/div&gt;&lt;div&gt;all inputted fields&lt;/div&gt;&lt;/div&gt;" style="text;html=1;align=center;verticalAlign=middle;resizable=0;points=[];autosize=1;strokeColor=none;fillColor=none;" vertex="1" parent="1">
          <mxGeometry x="1410" y="1145" width="130" height="40" as="geometry" />
        </mxCell>
        <mxCell id="RuIfawrFc-DGeBDDVX_--73" value="" style="endArrow=classic;html=1;rounded=0;entryX=0.5;entryY=1;entryDx=0;entryDy=0;" edge="1" parent="1">
          <mxGeometry width="50" height="50" relative="1" as="geometry">
            <mxPoint x="1480" y="1140" as="sourcePoint" />
            <mxPoint x="1515" y="1040" as="targetPoint" />
          </mxGeometry>
        </mxCell>
        <mxCell id="RuIfawrFc-DGeBDDVX_--74" value="A variety of text fields required for&amp;nbsp;&lt;div&gt;a tax form submission (for a business user)&lt;/div&gt;" style="text;html=1;align=center;verticalAlign=middle;resizable=0;points=[];autosize=1;strokeColor=none;fillColor=none;" vertex="1" parent="1">
          <mxGeometry x="1855" y="820" width="250" height="40" as="geometry" />
        </mxCell>
        <mxCell id="RuIfawrFc-DGeBDDVX_--75" value="" style="endArrow=classic;html=1;rounded=0;exitX=0.008;exitY=0.508;exitDx=0;exitDy=0;exitPerimeter=0;" edge="1" parent="1" source="RuIfawrFc-DGeBDDVX_--74">
          <mxGeometry width="50" height="50" relative="1" as="geometry">
            <mxPoint x="1917" y="759" as="sourcePoint" />
            <mxPoint x="1830" y="832" as="targetPoint" />
          </mxGeometry>
        </mxCell>
        <mxCell id="RuIfawrFc-DGeBDDVX_--78" value="The header of the page (&quot;Business Tax Form&quot;)" style="text;html=1;align=center;verticalAlign=middle;resizable=0;points=[];autosize=1;strokeColor=none;fillColor=none;" vertex="1" parent="1">
          <mxGeometry x="1870" y="700" width="270" height="30" as="geometry" />
        </mxCell>
        <mxCell id="RuIfawrFc-DGeBDDVX_--79" value="" style="endArrow=classic;html=1;rounded=0;exitX=0;exitY=0.502;exitDx=0;exitDy=0;exitPerimeter=0;entryX=1;entryY=0.5;entryDx=0;entryDy=0;" edge="1" parent="1" source="RuIfawrFc-DGeBDDVX_--78" target="RuIfawrFc-DGeBDDVX_--27">
          <mxGeometry width="50" height="50" relative="1" as="geometry">
            <mxPoint x="1867" y="850" as="sourcePoint" />
            <mxPoint x="1840" y="842" as="targetPoint" />
          </mxGeometry>
        </mxCell>
        <mxCell id="RuIfawrFc-DGeBDDVX_--80" value="Business tax form requires&amp;nbsp;&lt;div&gt;a balance sheet for the year, submitted&lt;/div&gt;&lt;div&gt;as a PDF&lt;/div&gt;" style="text;html=1;align=center;verticalAlign=middle;resizable=0;points=[];autosize=1;strokeColor=none;fillColor=none;" vertex="1" parent="1">
          <mxGeometry x="1550" y="1110" width="230" height="60" as="geometry" />
        </mxCell>
        <mxCell id="RuIfawrFc-DGeBDDVX_--81" value="" style="endArrow=classic;html=1;rounded=0;entryX=0.5;entryY=1;entryDx=0;entryDy=0;" edge="1" parent="1" source="RuIfawrFc-DGeBDDVX_--80">
          <mxGeometry width="50" height="50" relative="1" as="geometry">
            <mxPoint x="1615" y="1120" as="sourcePoint" />
            <mxPoint x="1650" y="1020" as="targetPoint" />
          </mxGeometry>
        </mxCell>
      </root>
    </mxGraphModel>
  </diagram>
</mxfile>
